<svg role="presentation" class="dig-Illustration dig-Illustration-spot" viewBox="0 0 500 500" fill="none" xmlns="http://www.w3.org/2000/svg"><title></title><g fill-rule="evenodd" clip-rule="evenodd"><path d="M447.493 136.078c-.871.172-3.113.843-4.983 1.489a169.75 169.75 0 0 1-5.891 1.914c-1.37.406-5.078 1.804-8.24 3.108-6.572 2.709-11.069 4.5-12.457 4.96-.527.175-2.338.959-4.024 1.74a132.003 132.003 0 0 1-6.325 2.691c-3.17 1.235-6.688 2.817-8.24 3.706-1.543.884-7.483 3.758-7.767 3.758-.465 0-3.272 1.548-4.115 2.269-.421.361-2.06 1.139-3.641 1.729-1.581.59-3.717 1.398-4.746 1.795-1.03.397-2.124.722-2.432.722-.309 0-1.019.237-1.578.527-2.467 1.276-6.927 3.039-7.835 3.096-.166.01-.426.221-.578.467-.153.247-.794.57-1.424.717-.63.147-1.51.494-1.955.77-1.23.765-4.712 1.691-7.863 2.091-2.934.372-8.81 1.494-12.792 2.442-1.264.301-3.938.908-5.94 1.349-2.003.44-4.504 1.073-5.558 1.405-2.033.64-2.022.637-4.983 1.3-1.054.237-2.606.668-3.449.96-1.87.646-5.539 1.775-6.324 1.945-1.098.24-4.809 1.629-8.035 3.008-1.784.763-3.513 1.387-3.843 1.387-.33 0-.983.269-1.452.597-.468.328-.852.508-.852.4 0-.108-.659.036-1.463.32-.806.284-3.436.987-5.845 1.561-6.159 1.469-14.402 3.946-16.029 4.818-.755.405-1.591.736-1.858.736-.266 0-.485.161-.485.358 0 .197-.387.48-.86.63-1.22.388-2.891 2.179-5.338 5.72-2.073 3.002-2.5 3.754-4.786 8.432-2.301 4.709-5.99 11.503-6.313 11.626-.183.071-.333.36-.333.644 0 .283-.232.747-.515 1.029-.283.283-.738.943-1.012 1.465-.275.523-1.048 1.813-1.719 2.867s-1.979 3.124-2.907 4.599c-.929 1.476-1.795 2.769-1.926 2.875-.132.105-.455.601-.719 1.102-.264.501-1.068 1.708-1.787 2.683-.719.975-1.434 1.954-1.59 2.175-.829 1.184-1.349 2.44-2.635 6.379-.779 2.383-1.672 4.636-1.986 5.004-.314.369-.464.671-.334.671s-.323 1.078-1.007 2.396c-.684 1.317-1.56 3.257-1.948 4.311a68.943 68.943 0 0 1-1.477 3.642c-1.306 2.913-1.408 3.181-2.202 5.749-.423 1.37-.934 2.836-1.136 3.258-1.047 2.195-4.738 12.835-5.147 14.839-.361 1.771-.369 2.721-.033 4.044.407 1.605 1.964 3.803 2.391 3.375.103-.102.885.169 1.737.604 1.217.62 2.068.758 3.955.637 2.034-.129 2.739-.383 4.575-1.647 2.091-1.441 6.624-6.378 8.606-9.375 3.549-5.366 6.267-9.222 6.913-9.807.414-.374.753-.899.753-1.165s.138-.541.307-.611c.338-.14 2.038-2.947 4.837-7.985a302.895 302.895 0 0 1 2.76-4.87l.949-1.611 1.68 1.228c.924.676 2.13 1.544 2.681 1.93l1.001.701-1.359 1.504c-.747.827-1.358 1.762-1.358 2.077 0 .316-.169.574-.376.574-.206 0-.484.431-.616.958-.132.527-.375.959-.538.959-.163 0-.387.302-.497.67-.109.369-.81 2.39-1.555 4.492-1.229 3.461-1.32 3.99-.967 5.635 1.023 4.773 5.449 7.057 11.729 6.052 1.216-.194 4.174-.611 6.574-.926 3.928-.516 4.75-.77 8.24-2.54 2.133-1.082 4.072-2.125 4.31-2.317.237-.192 5.325-.439 11.306-.547 5.981-.109 11.393-.221 12.025-.249.632-.028 1.84.107 2.683.301 2.061.474 6.502.353 8.624-.234.948-.262 2.069-.526 2.491-.586 1.23-.177 3.764-1.557 4.645-2.53.447-.493.919-1.351 1.05-1.905.355-1.509-.662-4.367-2.238-6.292-1.318-1.607-1.35-1.707-.542-1.707 1.861 0 14.524-4.356 14.524-4.996 0-.155.329-.367.73-.472.906-.237 3.373-3.557 3.691-4.966.553-2.455-2.081-4.626-6.145-5.064l-4.19-.45c-.829-.089-1.575-.229-1.657-.311-.153-.153 12.25-6.738 12.691-6.738.134 0 1.55-.604 3.147-1.342 1.597-.738 3.026-1.341 3.175-1.341.311 0 6.111-2.421 7.196-3.003 1.84-.987 4.035-1.98 4.378-1.98.208 0 1.453-.65 2.767-1.446 1.314-.795 3.855-2.201 5.646-3.126 3.524-1.817 4.121-2.225 7.226-4.941 2.959-2.588 5.5-6.707 8.718-14.135.375-.864 1.071-1.473 2.355-2.06 4.28-1.956 8.073-3.551 9.681-4.073a55.042 55.042 0 0 0 3.449-1.277c.949-.395 2.329-.846 3.067-1.002 1.629-.345 1.588-.333 2.299-.646.6-.264 12.027-4.024 13.032-4.288.316-.083 2.3-.78 4.408-1.55 2.108-.769 4.177-1.495 4.599-1.613.422-.118 1.37-.582 2.108-1.03.738-.449 2.721-1.215 4.408-1.703 6.214-1.798 8.415-3.216 8.829-5.69.133-.791.484-2.214.78-3.163.295-.948.631-2.501.745-3.449.114-.949.287-1.984.384-2.3.267-.872.479-3.479.762-9.39.142-2.952.416-6.098.608-6.992.193-.895.52-2.792.727-4.216.207-1.425.464-3.022.572-3.549.108-.527.216-3.423.241-6.436.026-3.012.184-6.087.352-6.833.476-2.112-.483-4.463-2.146-5.255-1.453-.693-6.301-.821-9.221-.242z" fill="#B4724B"></path><path d="M175.232 152.23c-5.821.793-6.906 1.101-11.307 3.21-3.58 1.715-7.78 5.085-8.803 7.064-.296.572-1.046 1.583-1.667 2.249-1.883 2.015-3.32 9.168-2.635 13.118 1.084 6.25 3.523 9.905 9.061 13.576 5.877 3.897 9.627 5.222 16.309 5.764 1.476.119 3.312.31 4.08.425 3.73.554 13.899-2.115 17.876-4.692 3.08-1.995 5.77-4.935 7.536-8.235l1.512-2.826-.046-4.791c-.052-5.378-.419-6.858-2.679-10.799-3.202-5.583-5.223-7.489-11.623-10.956-6.294-3.411-10.259-4.11-17.614-3.107z" fill="#14C8EB"></path><path d="M262.564 130.069c-.105.104-1.916.313-4.024.463-2.108.151-3.919.325-4.025.387-.105.063-1.83.229-3.833.368-2.002.14-3.899.319-4.216.398-.316.079-2.127.248-4.024.374-1.897.127-3.881.302-4.408.389-.527.088-1.907.245-3.066.35-2.256.203-6.125.566-8.624.809-.843.082-3.689.337-6.324.567-2.635.23-5.567.495-6.516.589-.948.094-3.536.338-5.749.543-2.213.204-7.733.727-12.265 1.162-4.532.435-9.189.877-10.349.981-1.159.105-2.884.271-3.832.369a570.1 570.1 0 0 1-10.157.96c-4.776.42-7.223.653-10.157.966-.949.101-2.76.273-4.025.382-1.265.108-3.076.278-4.024.377-.949.099-2.674.265-3.833.367-2.484.221-9.802.917-12.265 1.167-1.85.188-5.145.495-8.241.768a1432.3 1432.3 0 0 0-6.132.564c-2.319.217-5.251.486-6.516.597-1.265.111-2.903.278-3.641.371-.738.093-2.549.263-4.024.379-1.476.115-3.46.292-4.408.393-1.638.172-4.718.464-14.086 1.334-2.266.211-4.81.461-5.653.556-.843.096-3.603.362-6.133.592-2.53.23-5.289.491-6.132.581-.843.089-3.517.344-5.94.567-7.397.679-10.297 1.107-11.401 1.685-1.807.946-3.549 2.923-3.541 4.019.015 2.109 1.159 7.393 2.069 9.556.522 1.239 1.149 3.048 1.393 4.019.245.972.858 2.327 1.363 3.011.505.684.917 1.4.917 1.59 0 .191.238.891.53 1.555.29.664.913 2.156 1.384 3.316.47 1.159 1.245 2.97 1.721 4.024.477 1.054 5.31 12.265 10.74 24.913 9.059 21.103 10.667 24.828 12.284 28.459.305.685.796 1.806 1.092 2.491.295.686 1.071 2.407 1.724 3.825.654 1.419 1.188 2.678 1.188 2.8 0 .121.37 1.031.82 2.02 1.082 2.371 29.804 69.11 34.837 80.947 1.21 2.846 3.614 8.451 5.342 12.457 1.727 4.005 3.485 8.144 3.907 9.198 1.754 4.389 3.379 7.089 4.269 7.093.253.002.938.253 1.524.558.585.305 1.987.726 3.116.934 3.189.59 21.199 1.253 21.4.789.055-.126 11.31-1.807 25.013-3.736 21.902-3.082 32.799-4.594 69.757-9.68 4.638-.637 10.243-1.412 12.456-1.721 9.002-1.254 37.903-5.206 51.743-7.074 15.803-2.134 18.057-2.672 19.782-4.723 1.338-1.59 1.662-2.571 1.35-4.096-.343-1.678-1.201-1.992-1.201-.439 0 3.331-1.625 4.312-8.624 5.207-4.788.612-17.819 2.499-42.736 6.188-6.429.952-15.139 2.228-19.355 2.837-4.216.608-8.356 1.219-9.199 1.358-1.499.247-11.111 1.611-24.154 3.429-3.587.5-6.95 1.011-7.474 1.135-.523.125-4.142.669-8.042 1.21-3.9.541-9.936 1.401-13.414 1.91-3.479.51-8.912 1.281-12.074 1.713a586.647 586.647 0 0 0-11.882 1.72c-1.673.258-2.466.373-13.223 1.918-10.1 1.451-11.601 1.542-19.355 1.171-13.443-.641-14.797-.923-15.977-3.325-.354-.72-3.575-8.208-7.158-16.64-3.584-8.433-6.785-15.849-7.115-16.482-.33-.632-.601-1.267-.602-1.41-.001-.143-.526-1.437-1.166-2.875a537.947 537.947 0 0 1-2.591-5.872 1865.035 1865.035 0 0 0-5.48-12.548c-.402-.894-.731-1.708-.731-1.811 0-.102-.539-1.355-1.198-2.783-1.229-2.665-6.879-15.726-10.49-24.252-1.116-2.635-2.92-6.861-4.008-9.39-1.089-2.53-3.276-7.618-4.86-11.307a1615.676 1615.676 0 0 0-4.739-10.923 388.089 388.089 0 0 1-3.192-7.474c-.734-1.792-2.833-6.708-4.666-10.924a1230.177 1230.177 0 0 1-4.792-11.155 750.366 750.366 0 0 0-3.446-8.048 1940.499 1940.499 0 0 1-4.035-9.351c-4.339-10.142-6.106-14.138-8.093-18.291-1.13-2.365-2.056-4.413-2.056-4.551 0-.138-.597-1.571-1.326-3.186-.996-2.206-1.39-3.705-1.584-6.026l-.257-3.09 1.679-1.744c1.743-1.81 3.557-2.582 6.087-2.59 1.072-.004 15.657-1.279 28.363-2.481 1.16-.11 4.005-.374 6.324-.589a562.02 562.02 0 0 0 5.941-.575c.948-.102 3.708-.364 6.132-.583 3.825-.344 77.837-7.29 83.555-7.841a999.72 999.72 0 0 0 3.833-.379c2.067-.211 4.525-.444 10.157-.963 9.102-.839 12.726-1.176 14.565-1.353 22.259-2.151 42.898-4.042 44.591-4.085 2.69-.068 3.487.185 6.421 2.036 1.692 1.068 2.505 1.872 2.949 2.915.338.793 1.246 2.907 2.019 4.699 1.468 3.405 4.166 10.875 6.655 18.431.805 2.442 2.077 5.892 2.826 7.665 1.704 4.033 4.016 9.853 6.381 16.065 2.26 5.939 3.324 8.049 4.055 8.049.782 0 .708-.64-.332-2.875-.491-1.054-1.291-3.124-1.78-4.599-.488-1.476-1.439-3.899-2.113-5.385-.675-1.486-1.618-3.901-2.096-5.366-.478-1.465-1.095-3.181-1.371-3.814-1.328-3.041-2.96-7.256-4.155-10.732-3.242-9.423-5.188-14.764-6.309-17.312-.664-1.511-1.207-2.858-1.207-2.994 0-.136-.425-1.144-.944-2.242-1.742-3.682-4.534-5.417-9.441-5.865-1.35-.124-2.542-.139-2.647-.035zm-13.798 75.039c-1.159.171-3.143.415-4.408.541-4.777.479-6 .614-15.714 1.737-5.481.633-10.742 1.237-11.69 1.341l-6.899.767c-2.846.317-5.951.66-6.899.762-.949.102-3.881.438-6.516.745-2.635.307-5.826.658-7.091.78-1.265.122-3.593.379-5.174.573-3.193.39-4.692.556-12.377 1.367-2.908.307-5.754.637-6.324.733-.571.096-1.987.273-3.146.392-1.16.12-2.798.297-3.641.394-.844.097-2.568.277-3.833.401a112.22 112.22 0 0 0-3.45.384c-.632.087-7.272.856-14.756 1.706-15.949 1.814-21.847 2.652-21.847 3.106 0 .181.438.616.973.966.807.529 1.548.595 4.337.384 1.851-.139 3.698-.316 4.106-.392.407-.077 2.035-.258 3.616-.403 3.178-.292 26.347-2.837 28.171-3.094.632-.09 4.427-.51 8.432-.935 10.009-1.06 20.846-2.272 22.23-2.484.633-.097 3.651-.441 6.708-.764 4.672-.495 9.754-1.056 24.53-2.71 3.52-.394 25.659-2.896 30.47-3.443 2.741-.312 5.531-.606 6.202-.652 1.29-.088 1.289-.312-.001-1.745-.846-.939-2.087-1.034-6.009-.457zm-1.15 10.522c-2.002.265-4.59.591-5.749.725l-5.366.624c-1.792.21-4.034.463-4.983.563-.948.101-3.277.363-5.174.583-1.897.22-4.226.486-5.174.59-.949.104-2.242.264-2.875.355-.632.092-2.185.272-3.449.402-1.265.13-2.731.307-3.258.393-.527.087-3.459.428-6.516.759s-5.989.665-6.516.742c-.527.078-2.079.26-3.449.407-1.371.147-2.813.327-3.206.4-.394.073-1.687.234-2.875.358-1.188.124-2.677.293-3.31.376-1.987.262-16.698 1.978-19.93 2.325-1.054.113-3.814.453-6.133.754s-5.078.646-6.132.765a67.1 67.1 0 0 0-2.875.384c-.527.091-1.82.265-2.874.385-1.055.12-3.297.399-4.983.619-1.687.219-3.67.472-4.408.562-.738.09-3.325.424-5.749.744-2.424.319-5.443.683-6.707.808-4.11.407-7.527 1.079-7.487 1.471.056.543 4.708.342 13.044-.566 3.9-.424 9.505-1.029 12.457-1.344 13.202-1.409 23.871-2.566 25.105-2.723.737-.094 6.602-.767 13.031-1.495 6.43-.728 15.485-1.757 20.122-2.287 4.638-.529 9.209-1.05 10.157-1.156.949-.107 3.191-.365 4.983-.574 1.792-.209 4.206-.483 5.366-.608 1.159-.125 4.868-.558 8.24-.963 3.373-.405 7.771-.921 9.774-1.147 2.003-.226 4.849-.57 6.324-.765 1.476-.195 3.342-.393 4.147-.439 1.847-.105 2.023-.399.937-1.571l-.868-.938-3.641.482zm-8.464 18.351c-.088.083-1.195.266-2.459.407-2.241.251-3.439.404-6.076.774-1.769.249-10.582 1.351-15.375 1.922-1.257.15-2.551.324-2.874.386-.324.062-1.71.235-3.08.385-1.37.149-2.577.32-2.683.38-.105.06-1.571.224-3.258.365-1.686.141-3.325.329-3.641.417-.316.087-2.645.417-5.174.733-2.53.315-5.29.664-6.133.775-1.838.242-10.565 1.339-12.456 1.567a816.1 816.1 0 0 0-11.595 1.495c-.685.095-4.781.62-9.103 1.165-4.321.547-8.288 1.064-8.815 1.151-.527.086-3.114.432-5.749.769-2.635.336-5.222.678-5.749.76-.527.082-1.821.268-2.875.414a98.18 98.18 0 0 0-2.668.401c-.413.075-1.448.24-2.299.367-1.773.264-1.912.345-1.564.907.38.616 1.739.523 13.813-.94 9.734-1.179 51.984-6.453 55.166-6.886 6.571-.894 13.17-1.744 29.434-3.789l19.059-2.397-.587-.838c-.401-.573-.986-.839-1.843-.839-.691 0-1.328.067-1.416.149zm-13.383 17.476c-3.267.373-7.115.798-8.549.943-1.435.146-2.919.325-3.298.398-.38.073-2.052.243-3.716.377-1.664.135-3.457.315-3.984.4-.527.085-2.079.26-3.45.387-1.37.128-4.733.48-7.474.784-2.74.303-5.758.632-6.707.732-1.517.159-9.248 1.013-14.181 1.567-2.68.3-4.481.498-8.624.947-2.108.228-4.523.496-5.366.594-.843.099-3.157.35-5.141.557-3.856.402-12.735 1.427-14.732 1.7-.664.091-1.984.261-2.932.378-4.396.542-5.041.759-4.724 1.587.218.566.728.614 4.306.407 2.232-.129 5.439-.401 7.125-.604a297.92 297.92 0 0 1 5.174-.576c4.947-.485 24.475-2.597 30.471-3.296 3.584-.418 8.931-1.014 11.882-1.323a2360.68 2360.68 0 0 0 15.714-1.744c5.692-.649 12.677-1.427 15.523-1.727 2.846-.301 5.778-.632 6.516-.736.738-.104 2.463-.298 3.833-.431 1.37-.132 2.548-.296 2.618-.362.07-.067-.066-.481-.301-.92-.528-.986-1.638-.991-9.983-.039zm1.15 13.287c-.316.067-8.595.814-18.397 1.661-9.803.846-18.599 1.618-19.548 1.716-.948.097-3.018.279-4.599.403-2.712.214-3.913.325-8.049.743-.949.097-2.932.275-4.408.397-1.475.123-3.588.303-4.695.401-5.174.459-6.235.548-9.103.76-1.686.124-3.497.297-4.024.383-.527.087-2.338.27-4.025.408-1.686.138-3.325.298-3.641.356-1.092.2-7.475.718-7.797.633-.178-.047-.247.135-.153.405.255.734 7.744.351 28.072-1.434 1.265-.111 12.476-1.055 24.914-2.097 12.437-1.041 24.51-2.069 26.829-2.284 2.319-.215 5.596-.497 7.282-.627 1.687-.131 3.143-.311 3.237-.4.325-.308-1.322-1.546-1.895-1.424zm100.53 18.819c.108.579 3.127 9.764 6.707 20.409 4.714 14.016 6.681 19.39 7.129 19.48.722.145.792-.584.201-2.111-.23-.594-.482-1.338-.56-1.654-.498-2.014-12.197-36.311-12.518-36.699-.679-.82-1.166-.528-.959.575zm-105.704.092c-2.476.376-8.557 1.094-11.499 1.359-1.265.114-2.731.282-3.258.374-.527.091-2.079.266-3.449.388-1.37.122-2.75.29-3.066.374-.317.083-1.696.251-3.067.373-1.37.122-2.922.298-3.449.391-.527.093-1.993.267-3.258.388-2.907.277-8.782.912-10.54 1.14-.738.095-3.153.357-5.366.582-2.214.225-4.628.485-5.366.578-.738.093-3.066.344-5.174.558-3.717.378-8.925.96-12.457 1.392-2.768.339-4.724.947-5.242 1.629-.266.349-.488 1.569-.495 2.711-.01 1.616.244 2.532 1.141 4.12.634 1.124 1.863 3.811 2.732 5.972 1.545 3.844 3.107 7.36 5.32 11.978.606 1.265 1.36 2.943 1.675 3.729.325.811 1.121 1.773 1.841 2.225 1.497.94-.606 1.057 24.17-1.347 27.285-2.648 33.934-3.298 37.274-3.648 2.108-.221 6.506-.653 9.773-.961 3.268-.308 9.391-.905 13.607-1.327 4.216-.421 10.136-.978 13.156-1.235 6.417-.549 6.509-.612 5.81-3.979-.395-1.904-1.696-5.05-4.505-10.896-.557-1.16-1.035-2.195-1.062-2.3-.452-1.778-6.316-13.335-6.875-13.55-.917-.352-.717.591.985 4.642 1.801 4.289 8.203 18.902 9.007 20.561.706 1.457.7 1.497-.418 2.615-1.048 1.048-1.376 1.109-10.924 2.017-3.057.291-9.007.893-13.223 1.337-10.758 1.134-17.802 1.84-24.913 2.498-3.373.312-6.65.652-7.283.755-.632.103-2.961.357-5.174.562-4.125.384-14.696 1.45-17.439 1.758-.844.095-4.121.435-7.283.756a830.35 830.35 0 0 0-8.815.939c-2.839.33-3.158.294-4.296-.478-1.014-.687-3.561-4.867-3.561-5.844 0-.411-5.817-12.219-6.504-13.202-1.891-2.707-3.32-8.523-2.402-9.774.155-.21 1.575-.422 3.156-.471 3.133-.096 5.51-.344 19.356-2.024 5.059-.613 10.234-1.218 11.498-1.343 1.265-.126 3.594-.386 5.175-.578 1.581-.193 3.909-.451 5.174-.575 1.265-.124 3.593-.381 5.174-.572 1.581-.19 3.824-.44 4.983-.554a214.4 214.4 0 0 0 4.983-.576c1.581-.203 3.823-.465 4.982-.583 1.16-.119 2.626-.278 3.258-.355.633-.077 2.185-.255 3.45-.395 4.238-.472 5.748-.677 5.88-.801.299-.279-.41-1.709-.827-1.668-.25.024-1.316.176-2.37.335zm-38.179 10.832c-2.966 2.262-5.534 8.719-5.26 13.222l.128 2.093-2.3 1.237c-1.265.681-2.879 1.436-3.588 1.68-1.152.395-1.236.379-.791-.157.752-.906-.355-1.478-1.265-.654-.843.763-.88 1.871-.074 2.18 1.183.454 2.131.214 5.356-1.354l3.264-1.588.854.803c1.048.984 3.389 1.994 4.568 1.972 1.359-.026 3.605-.935 6.063-2.453l2.247-1.386 1.451.778c.798.428 2.171.778 3.051.778 2.219 0 6.774-2.441 10.658-5.712 3.527-2.969 5.07-3.87 6.63-3.87 1.334 0 2.012.62 2.012 1.84 0 1.336 2.319 3.526 3.735 3.526 1.583 0 4.86-1.19 8.006-2.906l2.677-1.46 1.387 1.512 1.387 1.512 4.723-.01c3.922-.009 11.764-.999 12.54-1.583.082-.062-.068-.376-.335-.697-.546-.658-2.486-.744-4.799-.214-3.266.749-3.97.838-8.336 1.05l-4.504.218v-1.011c0-1.373-1.321-2.655-2.415-2.341-.463.132-2.567 1.095-4.675 2.139-2.383 1.18-4.573 1.983-5.788 2.124l-1.955.227-.449-1.782c-.738-2.933-3.786-4.149-6.68-2.665-.674.346-2.52 1.693-4.101 2.995-5.674 4.669-10.241 6.711-12.808 5.725-.334-.128-.606-.346-.606-.486s1.45-1.458 3.223-2.929c2.955-2.455 5.968-6.172 5.973-7.371.003-.727-1.385-1.962-2.53-2.249-2.786-.699-7.5 2.405-8.794 5.791-.611 1.599-.627 3.865-.037 5.182.191.424-.43.993-2.333 2.136-3.323 1.995-4.45 2.459-5.976 2.459-1.464 0-2.944-.929-2.935-1.843.004-.357 1.346-1.695 2.983-2.975 3.455-2.7 5.554-5.598 6.396-8.831.793-3.045.734-3.863-.361-4.958-1.404-1.404-3.525-1.289-5.617.306zm5.261.518c.346 1.38-.806 5.285-2.123 7.2-1.33 1.933-4.039 4.598-5.7 5.608l-1.229.748v-1.639c0-.901.266-2.667.591-3.923 1.071-4.139 2.874-6.821 5.542-8.243 1.875-.999 2.622-.936 2.919.249zm11.584 5.162c-.482.857-1.312 2.028-1.845 2.601-1.498 1.612-5.835 5.089-6.063 4.861-.442-.442-.062-2.953.661-4.372.689-1.351 2.349-2.904 4.436-4.149.42-.251 1.422-.467 2.226-.479l1.462-.023-.877 1.561z" fill="currentColor"></path><path d="M170.78 159.291c-.88.401-1.861 1.132-2.181 1.624-.956 1.469-1.177 4.521-.476 6.584.804 2.368.779 2.679-.248 3.136-1.432.637-1.06 1.819 3.354 10.681l1.917 3.846 2.299-.105c1.265-.058 5.46-.439 9.324-.849 3.863-.409 7.7-.743 8.528-.743.827 0 1.504-.146 1.504-.323 0-.537-1.369-4.342-2.297-6.385-3.225-7.103-3.802-8.178-4.505-8.401-.416-.132-.996-.149-1.289-.038-.312.119-.85-.274-1.299-.948-.422-.633-.896-1.151-1.054-1.152-.159-.001-.288-.173-.288-.384 0-.661-2.586-3.981-3.908-5.016-1.962-1.536-2.615-1.786-5.291-2.029-1.978-.179-2.82-.076-4.09.502zm6.039 1.049c1.405.281 4.654 3.344 6.736 6.351l1.212 1.749-1.151.169c-.814.119-1.215-.01-1.369-.441-.639-1.781-5.935-6.162-7.454-6.166-1.247-.003-2.57.877-2.947 1.96-.441 1.265-.147 3.63.595 4.777.619.957.346 1.311-1.014 1.311-.916 0-1.099-.256-1.858-2.587-.961-2.952-1.022-3.856-.361-5.307.807-1.773 4.008-2.536 7.611-1.816zm1.002 5.048c2.352 1.96 3.389 3.049 3.14 3.298-.195.195-6.536 1.066-6.61.908-.031-.065-.358-.694-.726-1.396-.775-1.474-.878-3.537-.211-4.204.871-.872 2.189-.455 4.407 1.394zm11.681 7.632c2.57 5.385 3.766 8.165 3.766 8.749 0 .605-.346.665-9.774 1.693-4.005.437-7.713.877-8.24.978-1.028.196-1.607-.635-4.285-6.15-.614-1.265-1.281-2.558-1.483-2.874-.522-.818-.981-1.95-1.26-3.105l-.241-.996 5.839-.487c3.21-.268 7.476-.707 9.478-.976 2.003-.269 3.816-.507 4.03-.529.213-.022 1.19 1.642 2.17 3.697zm-12.262.32c-1.016.712-.857 1.659.561 3.355.501.599 1.272 1.93 1.715 2.959.442 1.028 1.133 1.974 1.535 2.101.813.258 3.401-.473 3.401-.961 0-.172-.341-1.064-.758-1.983s-.762-2.377-.766-3.24c-.006-1.026-.252-1.79-.71-2.204-.904-.819-3.825-.834-4.978-.027zm3.956.162c.131.212.244 1.117.251 2.012.007.894.34 2.382.742 3.304.862 1.982.898 2.347.232 2.347-.274 0-.867-.757-1.316-1.682-.45-.926-1.346-2.285-1.993-3.021-1.219-1.389-1.527-2.757-.696-3.092.852-.344 2.535-.265 2.78.132zm87.961 55.934c0 .198.155.456.343.572.613.379 3.107 5.93 3.107 6.915 0 1.173-1.729 5.621-2.943 7.571-.489.787-.89 1.563-.89 1.725-.001.163-.42.783-.933 1.379-1.87 2.175-3.478 4.188-3.599 4.509-.069.181-.586-.004-1.15-.41-.995-.717-6.136-2.117-6.486-1.766-.096.096.576.358 1.493.583 2.325.57 4.159 1.574 5.024 2.748.726.986.725 1.029-.102 3.806-.902 3.029-2.693 6.544-6.204 12.179-1.224 1.962-2.224 3.657-2.224 3.767 0 .379-4.762 8.399-6.569 11.062-1.002 1.475-3.258 4.149-5.015 5.941-3.573 3.644-4.296 4.261-6.344 5.407-1.311.734-1.337.779-.315.549 1.676-.378 3.898-2.055 7.97-6.017 3.701-3.601 6.261-7.047 8.921-12.013 1.797-3.353 3.88-6.977 6.772-11.777 1.235-2.051 2.251-3.862 2.258-4.025.006-.162.261-.624.565-1.027.535-.706.626-.683 2.679.681 1.841 1.221 2.073 1.51 1.733 2.147-.217.404-.562.839-.768.966-.66.409-3.104 4.865-4.089 7.455-.968 2.549-1.37 5.715-1.011 7.97.205 1.29 2.634 4.37 4.079 5.174 1.237.687 5.588 1.022 7.34.565 1.493-.389 2.836-1.217 4.791-2.951a69.305 69.305 0 0 1 1.728-1.481c1.718-1.407 3.254-3.697 3.247-4.838-.008-1.096-2.551-5.68-4.415-7.957-1.002-1.225-2.909-2.208-4.282-2.208-1.141 0-6.043 3.031-6.946 4.295-.28.392-.968 1.139-1.529 1.659-.56.52-.872.945-.693.945.179 0 1.249-.845 2.378-1.877 3.982-3.638 7.308-4.804 9.538-3.343.532.349 1.419 1.536 1.972 2.639.552 1.103 1.428 2.571 1.947 3.262.741.988.887 1.514.68 2.458-.313 1.423-4.619 6.212-6.788 7.55-1.808 1.114-6.14 1.559-7.938.815-1.692-.701-3.759-3.169-4.079-4.87-.653-3.479 1.366-9.149 5.025-14.108 1.931-2.618 2.856-3.546 7.074-7.091 1.129-.949 2.326-2.002 2.662-2.34.857-.864 6.157-4.662 7.351-5.269 1.03-.522 4.115-3.343 6.559-5.998 1.715-1.861 4.228-3.961 6.111-5.104 2.168-1.317 3.419-3.225 3.663-5.588.123-1.187.035-2.346-.209-2.766-.359-.618-.421-.516-.431.707-.021 2.505-1.017 4.276-3.388 6.021-3.687 2.714-4.764 3.609-6.181 5.136-3.995 4.305-6.388 6.326-10.941 9.239-1.232.788-2.443 1.633-2.69 1.877-.247.244-1.551 1.392-2.898 2.552a267.303 267.303 0 0 0-4.054 3.563c-.967.877-1.705 1.294-1.855 1.05-.138-.224-1.204-1.015-2.368-1.76-1.321-.845-2.043-1.549-1.919-1.872.184-.479.358-1.117 1.394-5.101.205-.791.768-1.869 1.252-2.396 2.93-3.197 4.326-5.41 6.647-10.54a115.89 115.89 0 0 1 1.096-2.381c.03-.044 1.643.43 3.584 1.054 1.94.625 4.003 1.134 4.582 1.132 2.208-.006 10.828-3.389 10.828-4.249 0-.472-.061-.46-2.172.456-7.272 3.151-9.845 3.525-13.18 1.913-.85-.41-2.017-.85-2.594-.976-.794-.175-1.277-.714-1.996-2.227-1.748-3.684-4.205-6.996-4.205-5.668zm66.864 20.292c-.2.186-1.572.982-3.047 1.769-2.753 1.468-4.479 2.584-5.646 3.652-.365.334-1.748 1.169-3.073 1.855-1.994 1.034-6.736 4.226-8.609 5.795-.254.213-.588.388-.741.388-.154 0-1.122.71-2.152 1.579-1.623 1.368-6.548 4.813-14.083 9.85-1.159.775-2.194 1.516-2.3 1.646-.302.375-4.335 2.866-5.078 3.137-1.067.389-.816 1.155.287.878.614-.154.959-.079.959.208 0 .334 1.494.385 5.845.199 3.215-.138 10.243-.254 15.618-.257 9.783-.008 13.772-.321 17.529-1.379 1.638-.462 2.207-.86 3.104-2.176.604-.886 1.211-2.075 1.349-2.641.396-1.626-.43-4.611-1.681-6.075-1.278-1.495-1.397-1.903-.556-1.903 1.002 0 11.78-3.696 13.859-4.752 2.079-1.056 3.958-2.935 3.958-3.957 0-.519-.489-.573-3.546-.388-2.09.126-4.255.503-5.275.918-2.861 1.165-6.64 4.345-5.966 5.018.117.118 1.121-.642 2.23-1.688 2.253-2.125 3.726-2.653 8.287-2.967 2.779-.192 2.811-.184 2.145.553-.372.411-.895.747-1.161.747s-.544.184-.619.409c-.076.225-3.151 1.468-6.836 2.761-8.406 2.951-11.526 3.197-15.897 1.253-.633-.282-2.15-.731-3.372-.999-2.389-.524-3.032-.983-1.923-1.375.383-.134 1.127-.632 1.654-1.106 1.112-1.001 5.982-4.009 6.49-4.009.19 0 .402-.151.473-.336.119-.314 1.769-1.406 6.992-4.625 1.178-.727 2.142-1.546 2.142-1.821 0-.57-.817-.667-1.36-.161zm-12.246 15.414c2.108.602 4.774 1.274 5.925 1.492 1.38.261 2.467.754 3.192 1.445 1.537 1.466 3.026 4.834 2.718 6.145-.326 1.386-1.915 3.039-3.37 3.506-1.478.474-6.95 1.124-9.998 1.187-3.866.08-3.756.114-3.467-1.07.533-2.184 1.373-2.574 5.855-2.72 4.077-.132 6.896.332 7.475 1.23.169.261.284.108.288-.384.009-1.291-2.546-2.106-7.342-2.342l-4.089-.201-1.012 1.092c-.557.6-1.21 1.831-1.452 2.736l-.44 1.644h-5.417c-2.979 0-8.333.106-11.897.236l-6.482.237 5.807-3.974c9.51-6.508 13.694-9.439 14.528-10.176 2.157-1.907 2.776-1.912 9.178-.083zm-91.029 13.634c0 .388.161 1.27.359 1.959.453 1.58-.318 4.724-1.891 7.717-1.588 3.021-2.052 4.356-1.442 4.154.265-.088.741-.663 1.057-1.279.316-.615 1.116-2.086 1.777-3.269 1.355-2.423 1.815-5.004 1.388-7.783-.278-1.805-1.248-2.97-1.248-1.499zm-6.133 14.243c0 .366 2.468 2.406 3.712 3.068.461.245 1.754.424 2.875.398l2.037-.048-1.971-.289c-1.8-.263-5.043-2.011-5.698-3.07-.284-.46-.955-.502-.955-.059z" fill="#1E1919"></path></g></svg>